<svg width="72" height="72" viewBox="0 0 72 72" fill="currentColor" xmlns="http://www.w3.org/2000/svg">
<path d="M60.951 12.4668C56.362 10.3611 51.441 8.80979 46.2957 7.92127C46.202 7.90412 46.1084 7.94697 46.0601 8.03269C45.4272 9.15833 44.7262 10.6268 44.2353 11.7811C38.7012 10.9526 33.1955 10.9526 27.775 11.7811C27.2839 10.6012 26.5575 9.15833 25.9217 8.03269C25.8735 7.94983 25.7799 7.90698 25.6861 7.92127C20.5437 8.80695 15.6227 10.3583 11.0308 12.4668C10.9911 12.4839 10.957 12.5125 10.9344 12.5496C1.60018 26.4947 -0.956851 40.097 0.29754 53.5307C0.303216 53.5964 0.34011 53.6593 0.391194 53.6993C6.54963 58.2219 12.5151 60.9675 18.3698 62.7874C18.4635 62.816 18.5628 62.7817 18.6224 62.7045C20.0074 60.8133 21.2419 58.8191 22.3004 56.7219C22.3629 56.5991 22.3033 56.4534 22.1756 56.4048C20.2174 55.662 18.3528 54.7563 16.5592 53.7279C16.4173 53.645 16.406 53.4421 16.5365 53.3449C16.9139 53.0621 17.2915 52.7678 17.6519 52.4707C17.7171 52.4164 17.8079 52.405 17.8846 52.4393C29.6679 57.8191 42.4246 57.8191 54.0689 52.4393C54.1455 52.4021 54.2364 52.4136 54.3044 52.4679C54.6649 52.765 55.0424 53.0621 55.4227 53.3449C55.5532 53.4421 55.5447 53.645 55.4028 53.7279C53.6092 54.7763 51.7446 55.662 49.7835 56.402C49.6559 56.4506 49.5991 56.5991 49.6615 56.7219C50.7428 58.8161 51.9773 60.8103 53.3367 62.7017C53.3935 62.7817 53.4956 62.816 53.5893 62.7874C59.4724 60.9675 65.4379 58.2219 71.5963 53.6993C71.6502 53.6593 71.6843 53.5993 71.69 53.5336C73.1912 38.0028 69.1755 24.512 61.0446 12.5525C61.0248 12.5125 60.9908 12.4839 60.951 12.4668ZM24.0601 45.351C20.5125 45.351 17.5894 42.0941 17.5894 38.0942C17.5894 34.0944 20.4558 30.8374 24.0601 30.8374C27.6926 30.8374 30.5874 34.123 30.5306 38.0942C30.5306 42.0941 27.6642 45.351 24.0601 45.351ZM47.9842 45.351C44.4368 45.351 41.5137 42.0941 41.5137 38.0942C41.5137 34.0944 44.38 30.8374 47.9842 30.8374C51.6169 30.8374 54.5116 34.123 54.4549 38.0942C54.4549 42.0941 51.6169 45.351 47.9842 45.351Z" fill="#991D1D"/>
</svg>
