<svg width="32" height="32" viewBox="0 0 32 32" fill="currentColor" xmlns="http://www.w3.org/2000/svg">
<path d="M16 0C24.8364 4.84499e-05 31.9999 7.16329 32 16C32 24.8368 24.8365 32.0009 16 32.001C7.16344 32.001 0 24.8369 0 16C0.000138123 7.16326 7.16353 0 16 0ZM12.2432 9.15625C12.0854 9.03208 10.0727 7.47335 8.13672 7.64648C8.03672 7.90315 7.29284 9.62988 7.97266 11.6465C6.90607 12.8698 6.36328 14.3871 6.36328 16.0371C6.36339 19.437 8.31659 22.2967 13.0029 23.1367C12.4429 23.6801 12.0367 24.3807 11.8467 25.1641C10.9767 25.3807 9.25988 25.6003 8.37988 24.2969C7.16325 22.5002 6.11299 21.8372 5.08301 22.3672C4.6501 22.8671 6.09962 23.1341 6.71289 24.1807C7.01619 24.6809 7.19995 27.6733 11.7227 27.1436V29.668C13.0734 30.0903 14.5101 30.3184 16 30.3184C17.4799 30.3183 18.9072 30.0936 20.25 29.6768V26.1768C20.2504 25.6123 20.1379 25.0529 19.9199 24.5322C19.7019 24.0116 19.382 23.5394 18.9795 23.1436C23.6795 22.3169 25.6465 19.4536 25.6465 16.0469C25.6465 14.3935 25.0965 12.8634 24.0166 11.6367C24.6566 9.64665 23.9297 7.9598 23.833 7.70312C22.033 7.53986 20.1667 8.88032 19.79 9.16699C18.6801 8.86701 17.42 8.70315 16.0068 8.70312C14.6002 8.70312 13.3431 8.85959 12.2432 9.15625Z" fill="currentColor"/>
</svg>
