<svg width="44" height="44" viewBox="0 0 44 44" fill="none" xmlns="http://www.w3.org/2000/svg">
<g clip-path="url(#clip0_3323_652)">
<path d="M43.5775 17.9185H22.4686V26.3768H34.5979C34.4029 27.5738 33.9651 28.7514 33.3239 29.8252C32.5894 31.0554 31.6812 31.992 30.7504 32.7053C27.9622 34.8418 24.7115 35.2787 22.4539 35.2787C16.751 35.2787 11.8782 31.5928 9.99188 26.5844C9.91575 26.4026 9.8652 26.2149 9.80365 26.0293C9.3868 24.7546 9.15905 23.4046 9.15905 22.0014C9.15905 20.5411 9.40568 19.1432 9.85538 17.8229C11.6292 12.6159 16.6118 8.72678 22.458 8.72678C23.6339 8.72678 24.7663 8.86675 25.8401 9.14593C28.2943 9.78396 30.0303 11.0406 31.094 12.0345L37.5123 5.74889C33.6081 2.16914 28.5185 5.41232e-09 22.4473 5.41232e-09C17.5939 -0.000104462 13.1129 1.5121 9.44094 4.06777C6.46307 6.14036 4.0208 8.91528 2.37256 12.1381C0.839467 15.1262 0 18.4377 0 21.9981C0 25.5587 0.840749 28.9046 2.37385 31.8651V31.885C3.99318 35.028 6.3612 37.7342 9.23927 39.7973C11.7536 41.5996 16.262 44 22.4473 44C26.0044 44 29.1569 43.3587 31.9372 42.1568C33.9428 41.2898 35.7198 40.159 37.3287 38.7057C39.4545 36.7853 41.1194 34.41 42.2558 31.6772C43.3921 28.9444 44 25.854 44 22.5036C44 20.9432 43.8433 19.3585 43.5775 17.9183V17.9185Z" fill="#991D1D"/>
</g>
<defs>
<clipPath id="clip0_3323_652">
<rect width="44" height="44" fill="white"/>
</clipPath>
</defs>
</svg>
