<svg width="72" height="72" viewBox="0 0 72 72" fill="none" xmlns="http://www.w3.org/2000/svg">
<g clip-path="url(#clip0_3316_1000)">
<path d="M36 6.48281C45.6188 6.48281 46.7578 6.525 50.5406 6.69375C54.0563 6.84844 55.9547 7.43906 57.2203 7.93125C58.8938 8.57812 60.1031 9.36562 61.3547 10.6172C62.6203 11.8828 63.3938 13.0781 64.0406 14.7516C64.5328 16.0172 65.1234 17.9297 65.2781 21.4312C65.4469 25.2281 65.4891 26.3672 65.4891 35.9719C65.4891 45.5906 65.4469 46.7297 65.2781 50.5125C65.1234 54.0281 64.5328 55.9266 64.0406 57.1922C63.3938 58.8656 62.6063 60.075 61.3547 61.3266C60.0891 62.5922 58.8938 63.3656 57.2203 64.0125C55.9547 64.5047 54.0422 65.0953 50.5406 65.25C46.7438 65.4187 45.6047 65.4609 36 65.4609C26.3813 65.4609 25.2422 65.4187 21.4594 65.25C17.9438 65.0953 16.0453 64.5047 14.7797 64.0125C13.1063 63.3656 11.8969 62.5781 10.6453 61.3266C9.37969 60.0609 8.60625 58.8656 7.95938 57.1922C7.46719 55.9266 6.87656 54.0141 6.72188 50.5125C6.55313 46.7156 6.51094 45.5766 6.51094 35.9719C6.51094 26.3531 6.55313 25.2141 6.72188 21.4312C6.87656 17.9156 7.46719 16.0172 7.95938 14.7516C8.60625 13.0781 9.39375 11.8687 10.6453 10.6172C11.9109 9.35156 13.1063 8.57812 14.7797 7.93125C16.0453 7.43906 17.9578 6.84844 21.4594 6.69375C25.2422 6.525 26.3813 6.48281 36 6.48281ZM36 0C26.2266 0 25.0031 0.0421875 21.1641 0.210937C17.3391 0.379687 14.7094 0.998437 12.4313 1.88437C10.0547 2.8125 8.04375 4.03594 6.04688 6.04687C4.03594 8.04375 2.8125 10.0547 1.88438 12.4172C0.998437 14.7094 0.379688 17.325 0.210938 21.15C0.0421875 25.0031 0 26.2266 0 36C0 45.7734 0.0421875 46.9969 0.210938 50.8359C0.379688 54.6609 0.998437 57.2906 1.88438 59.5687C2.8125 61.9453 4.03594 63.9562 6.04688 65.9531C8.04375 67.95 10.0547 69.1875 12.4172 70.1016C14.7094 70.9875 17.325 71.6062 21.15 71.775C24.9891 71.9437 26.2125 71.9859 35.9859 71.9859C45.7594 71.9859 46.9828 71.9437 50.8219 71.775C54.6469 71.6062 57.2766 70.9875 59.5547 70.1016C61.9172 69.1875 63.9281 67.95 65.925 65.9531C67.9219 63.9562 69.1594 61.9453 70.0734 59.5828C70.9594 57.2906 71.5781 54.675 71.7469 50.85C71.9156 47.0109 71.9578 45.7875 71.9578 36.0141C71.9578 26.2406 71.9156 25.0172 71.7469 21.1781C71.5781 17.3531 70.9594 14.7234 70.0734 12.4453C69.1875 10.0547 67.9641 8.04375 65.9531 6.04687C63.9563 4.05 61.9453 2.8125 59.5828 1.89844C57.2906 1.0125 54.675 0.39375 50.85 0.225C46.9969 0.0421875 45.7734 0 36 0Z" fill="#991D1D"/>
<path d="M36 17.5078C25.7906 17.5078 17.5078 25.7906 17.5078 36C17.5078 46.2094 25.7906 54.4922 36 54.4922C46.2094 54.4922 54.4922 46.2094 54.4922 36C54.4922 25.7906 46.2094 17.5078 36 17.5078ZM36 47.9953C29.3766 47.9953 24.0047 42.6234 24.0047 36C24.0047 29.3766 29.3766 24.0047 36 24.0047C42.6234 24.0047 47.9953 29.3766 47.9953 36C47.9953 42.6234 42.6234 47.9953 36 47.9953Z" fill="#991D1D"/>
<path d="M59.5406 16.7764C59.5406 19.167 57.6 21.0936 55.2234 21.0936C52.8328 21.0936 50.9062 19.153 50.9062 16.7764C50.9062 14.3858 52.8469 12.4592 55.2234 12.4592C57.6 12.4592 59.5406 14.3999 59.5406 16.7764Z" fill="#991D1D"/>
</g>
<defs>
<clipPath id="clip0_3316_1000">
<rect width="72" height="72" fill="white"/>
</clipPath>
</defs>
</svg>
